<?xml version="1.0" encoding="UTF-8" standalone="no"?>
<!-- Created with Inkscape (http://www.inkscape.org/) -->

<svg
   xmlns:dc="http://purl.org/dc/elements/1.1/"
   xmlns:cc="http://creativecommons.org/ns#"
   xmlns:rdf="http://www.w3.org/1999/02/22-rdf-syntax-ns#"
   xmlns:svg="http://www.w3.org/2000/svg"
   xmlns="http://www.w3.org/2000/svg"
   xmlns:sodipodi="http://sodipodi.sourceforge.net/DTD/sodipodi-0.dtd"
   xmlns:inkscape="http://www.inkscape.org/namespaces/inkscape"
   version="1.1"
   width="391"
   height="391"
   id="svg2"
   inkscape:version="0.48.0 r9654"
   sodipodi:docname="empty.svg">
  <sodipodi:namedview
     pagecolor="#ffffff"
     bordercolor="#666666"
     borderopacity="1"
     objecttolerance="10"
     gridtolerance="10"
     guidetolerance="10"
     inkscape:pageopacity="0"
     inkscape:pageshadow="2"
     inkscape:window-width="1043"
     inkscape:window-height="719"
     id="namedview3944"
     showgrid="true"
     inkscape:zoom="1.2762148"
     inkscape:cx="212.05961"
     inkscape:cy="195.49999"
     inkscape:window-x="1302"
     inkscape:window-y="0"
     inkscape:window-maximized="0"
     inkscape:current-layer="svg2">
    <inkscape:grid
       type="xygrid"
       id="grid3984"
       empspacing="5"
       visible="true"
       enabled="true"
       snapvisiblegridlinesonly="true" />
  </sodipodi:namedview>
  <defs
     id="defs4" />
  <metadata
     id="metadata7">
    <rdf:RDF>
      <cc:Work
         rdf:about="">
        <dc:format>image/svg+xml</dc:format>
        <dc:type
           rdf:resource="http://purl.org/dc/dcmitype/StillImage" />
        <dc:title></dc:title>
      </cc:Work>
    </rdf:RDF>
  </metadata>
  <g
     transform="translate(-214.5,-171.875)"
     id="layer1">
    <path
       d="M 222.74531,514.35182 C 245.17539,486.70349 320.96124,466.36218 411,466.36218 c 90.03875,0 165.8246,20.34131 188.25468,47.98963"
       id="path3757"
       style="color:#000000;fill:none;stroke:#000000;stroke-width:1px;stroke-linecap:butt;stroke-linejoin:miter;stroke-miterlimit:4;stroke-opacity:1;stroke-dasharray:none;stroke-dashoffset:0;marker:none;visibility:visible;display:inline;overflow:visible;enable-background:accumulate"
       inkscape:connector-curvature="0" />
    <path
       d="m 600,497.36218 a 195,65 0 1 1 -390,0 195,65 0 1 1 390,0 z"
       transform="translate(5,0)"
       id="path3780"
       style="color:#000000;fill:none;stroke:#000000;stroke-width:1px;stroke-linecap:butt;stroke-linejoin:miter;stroke-miterlimit:4;stroke-opacity:1;stroke-dasharray:none;stroke-dashoffset:0;marker:none;visibility:visible;display:inline;overflow:visible;enable-background:accumulate"
       inkscape:connector-curvature="0" />
    <path
       d="m 220.0328,510.54431 c -2.27074,-3.42819 -4.30377,-9.6726 -4.30377,-13.21892 0,-26.53409 52.16568,-51.07133 128.13371,-60.27041 60.42646,-7.31713 130.54199,-3.89929 182.00465,8.87197 53.99856,13.40059 83.72158,35.46156 77.34245,57.40499 -0.81636,2.80817 -3.01746,7.24475 -4.36265,8.79342 -0.11335,0.1305 -2.04566,-1.48354 -4.29402,-3.58678 -23.39834,-21.888 -81.24465,-37.93915 -151.47051,-42.02993 -14.76654,-0.86017 -50.31733,-0.85384 -64.52339,0.0115 -59.90821,3.6492 -108.4336,15.06424 -137.99412,32.46153 -6.34655,3.73514 -14.91871,10.39761 -16.51761,12.83783 -0.57312,0.87471 -1.28384,1.59037 -1.57936,1.59037 -0.29552,0 -1.39145,-1.2895 -2.43538,-2.86556 z"
       id="path3788"
       style="opacity:0.75847461;fill:#784421;fill-opacity:1;fill-rule:nonzero;stroke:#000000;stroke-width:1.21742237;stroke-linecap:butt;stroke-linejoin:round;stroke-miterlimit:4;stroke-opacity:1;stroke-dasharray:none;stroke-dashoffset:0"
       inkscape:connector-curvature="0" />
    <path
       d="m 380.68976,560.84592 c -72.29742,-4.16656 -128.78007,-19.69918 -153.96099,-42.33899 -1.69757,-1.52627 -3.0865,-3.13626 -3.0865,-3.57777 0,-0.4415 1.84896,-2.49801 4.1088,-4.57002 23.81556,-21.83612 75.25423,-36.64607 146.24287,-42.10547 13.21028,-1.01594 60.35838,-1.01698 73.65406,-0.002 42.6786,3.25925 74.49563,9.01452 102.17298,18.48171 16.20394,5.54265 25.756,10.05536 36.02638,17.02005 4.72754,3.20591 11.54359,9.29902 11.54359,10.31923 0,0.22806 -1.8322,2.1286 -4.07156,4.22341 -21.90798,20.49385 -74.56836,36.40645 -136.84508,41.35105 -23.288,1.849 -55.62322,2.36034 -75.78455,1.19842 z"
       id="path3790"
       style="opacity:0.75847461000000005;fill:#999999;fill-opacity:1;fill-rule:nonzero;stroke:#000000;stroke-width:1.21742236999999998;stroke-linecap:butt;stroke-linejoin:round;stroke-miterlimit:4;stroke-opacity:1;stroke-dasharray:none;stroke-dashoffset:0"
       inkscape:connector-curvature="0" />
  </g>
  <path
     style="fill:#e9c6af;fill-opacity:1;fill-rule:nonzero;stroke:none"
     d="M 7.1973582,339.36333 C 2.2376474,333.18117 1.0952044,322.65599 4.6230409,315.64648 7.3494542,310.22933 14.732084,302.94077 22.850405,297.65137 66.402827,269.27531 164.00896,255.82917 255.75631,265.56645 c 84.78694,8.99856 140.86667,37.20115 131.68688,66.22557 -2.46626,7.79773 -2.4474,7.79508 -10.34866,1.45321 -24.40759,-19.59051 -75.41596,-33.75314 -139.63853,-38.77107 -17.75095,-1.38694 -60.38825,-1.58733 -77.53983,-0.36441 -70.630126,5.03595 -125.347748,20.83822 -148.308124,42.83091 -2.8100904,2.69165 -3.7713187,3.21963 -4.4106878,2.42267 z"
     id="path4350"
     inkscape:connector-curvature="0" />
</svg>
