<?xml version="1.0" encoding="UTF-8" standalone="no"?>
<!-- Created with Inkscape (http://www.inkscape.org/) -->

<svg
   xmlns:dc="http://purl.org/dc/elements/1.1/"
   xmlns:cc="http://creativecommons.org/ns#"
   xmlns:rdf="http://www.w3.org/1999/02/22-rdf-syntax-ns#"
   xmlns:svg="http://www.w3.org/2000/svg"
   xmlns="http://www.w3.org/2000/svg"
   xmlns:sodipodi="http://sodipodi.sourceforge.net/DTD/sodipodi-0.dtd"
   xmlns:inkscape="http://www.inkscape.org/namespaces/inkscape"
   width="391"
   height="391"
   id="svg2"
   version="1.1"
   inkscape:version="0.48.0 r9654"
   sodipodi:docname="full.svg">
  <defs
     id="defs4" />
  <sodipodi:namedview
     id="base"
     pagecolor="#ffffff"
     bordercolor="#666666"
     borderopacity="1.0"
     inkscape:pageopacity="0.0"
     inkscape:pageshadow="2"
     inkscape:zoom="2.3657289"
     inkscape:cx="119.83622"
     inkscape:cy="65.512817"
     inkscape:document-units="px"
     inkscape:current-layer="layer1"
     showgrid="true"
     fit-margin-top="0"
     fit-margin-left="0"
     fit-margin-right="0"
     fit-margin-bottom="0"
     inkscape:window-width="1056"
     inkscape:window-height="869"
     inkscape:window-x="282"
     inkscape:window-y="5"
     inkscape:window-maximized="0">
    <inkscape:grid
       type="xygrid"
       id="grid2985"
       empspacing="5"
       visible="true"
       enabled="true"
       snapvisiblegridlinesonly="true" />
  </sodipodi:namedview>
  <metadata
     id="metadata7">
    <rdf:RDF>
      <cc:Work
         rdf:about="">
        <dc:format>image/svg+xml</dc:format>
        <dc:type
           rdf:resource="http://purl.org/dc/dcmitype/StillImage" />
        <dc:title></dc:title>
      </cc:Work>
    </rdf:RDF>
  </metadata>
  <g
     inkscape:label="Layer 1"
     inkscape:groupmode="layer"
     id="layer1"
     transform="translate(-214.5,-171.875)"
     style="display:inline">
    <path
       style="color:#000000;fill:none;stroke:#000000;stroke-width:1px;stroke-linecap:butt;stroke-linejoin:miter;stroke-miterlimit:4;stroke-opacity:1;stroke-dasharray:none;stroke-dashoffset:0;marker:none;visibility:visible;display:inline;overflow:visible;enable-background:accumulate"
       d="M 222.74531,514.35182 C 245.17539,486.70349 320.96124,466.36218 411,466.36218 c 90.03875,0 165.8246,20.34131 188.25468,47.98963"
       id="path3757"
       inkscape:connector-curvature="0" />
    <path
       d="m 600,497.36218 c 0,35.89851 -87.30447,65 -195,65 -107.69553,0 -195,-29.10149 -195,-65 0,-35.89851 87.30447,-65 195,-65 107.69553,0 195,29.10149 195,65 z"
       sodipodi:ry="65"
       sodipodi:rx="195"
       sodipodi:cy="497.36218"
       sodipodi:cx="405"
       id="path3780"
       style="color:#000000;fill:none;stroke:#000000;stroke-width:1px;stroke-linecap:butt;stroke-linejoin:miter;stroke-miterlimit:4;stroke-opacity:1;stroke-dasharray:none;stroke-dashoffset:0;marker:none;visibility:visible;display:inline;overflow:visible;enable-background:accumulate"
       sodipodi:type="arc"
       transform="translate(5,0)" />
    <path
       style="opacity:0.75847461000000005;fill:#e9c6af;fill-opacity:1;fill-rule:nonzero;stroke:#000000;stroke-width:1.21742236999999998;stroke-linecap:butt;stroke-linejoin:round;stroke-miterlimit:4;stroke-opacity:1;stroke-dasharray:none;stroke-dashoffset:0"
       d="m 220.0328,510.54431 c -2.27074,-3.42819 -4.30377,-9.6726 -4.30377,-13.21892 0,-26.53409 52.16568,-51.07133 128.13371,-60.27041 60.42646,-7.31713 130.54199,-3.89929 182.00465,8.87197 53.99856,13.40059 83.72158,35.46156 77.34245,57.40499 -0.81636,2.80817 -3.01746,7.24475 -4.36265,8.79342 -0.11335,0.1305 -2.04566,-1.48354 -4.29402,-3.58678 -23.39834,-21.888 -81.24465,-37.93915 -151.47051,-42.02993 -14.76654,-0.86017 -50.31733,-0.85384 -64.52339,0.0115 -59.90821,3.6492 -108.4336,15.06424 -137.99412,32.46153 -6.34655,3.73514 -14.91871,10.39761 -16.51761,12.83783 -0.57312,0.87471 -1.28384,1.59037 -1.57936,1.59037 -0.29552,0 -1.39145,-1.2895 -2.43538,-2.86556 z"
       id="path3788"
       inkscape:connector-curvature="0" />
    <path
       style="opacity:0.75847461000000005;fill:#999999;fill-opacity:1;fill-rule:nonzero;stroke:#000000;stroke-width:1.21742236999999998;stroke-linecap:butt;stroke-linejoin:round;stroke-miterlimit:4;stroke-opacity:1;stroke-dasharray:none;stroke-dashoffset:0"
       d="m 380.68976,560.84592 c -72.29742,-4.16656 -128.78007,-19.69918 -153.96099,-42.33899 -1.69757,-1.52627 -3.0865,-3.13626 -3.0865,-3.57777 0,-0.4415 1.84896,-2.49801 4.1088,-4.57002 23.81556,-21.83612 75.25423,-36.64607 146.24287,-42.10547 13.21028,-1.01594 60.35838,-1.01698 73.65406,-0.002 42.6786,3.25925 74.49563,9.01452 102.17298,18.48171 16.20394,5.54265 25.756,10.05536 36.02638,17.02005 4.72754,3.20591 11.54359,9.29902 11.54359,10.31923 0,0.22806 -1.8322,2.1286 -4.07156,4.22341 -21.90798,20.49385 -74.56836,36.40645 -136.84508,41.35105 -23.288,1.849 -55.62322,2.36034 -75.78455,1.19842 z"
       id="path3790"
       inkscape:connector-curvature="0" />
  </g>
  <g
     inkscape:groupmode="layer"
     id="layer2"
     inkscape:label="Layer"
     style="display:inline"
     transform="translate(0,260)">
    <path
       id="path3832"
       style="fill:none;stroke:#000000;stroke-width:0;stroke-linecap:butt;stroke-linejoin:miter;stroke-miterlimit:4;stroke-opacity:1;stroke-dasharray:none"
       d="m 250,53 0,75 m -105,-75 0,75 M 250,53 c 0,26.233526 -23.50505,47.5 -52.5,47.5 C 168.50505,100.5 145,79.233526 145,53 145,26.766474 168.50505,5.5 197.5,5.5 226.49495,5.5 250,26.766474 250,53 z"
       inkscape:connector-curvature="0" />
    <path
       style="fill:#502d16;fill-opacity:1;fill-rule:nonzero;stroke:#502d16;stroke-width:1;stroke-linecap:butt;stroke-linejoin:round;stroke-miterlimit:4;stroke-opacity:1;stroke-dasharray:none;stroke-dashoffset:0"
       d="m 168.44703,129.20133 c -9.02774,-0.48284 -19.88094,-1.25222 -21.45217,-1.52072 l -1.37378,-0.23476 0.0206,-31.761332 0.0206,-31.761335 1.1713,3.381621 c 6.02496,17.394535 22.76038,30.498764 42.38933,33.191846 17.36612,2.38262 34.73993,-3.000815 46.68073,-14.464466 5.91176,-5.675521 9.36335,-10.845334 12.03787,-18.030391 l 1.20351,-3.233205 -0.0866,31.28 -0.0866,31.280002 -5.91784,0.49999 c -15.11183,1.27678 -30.34907,1.8232 -49.15414,1.76272 -10.62803,-0.0342 -22.08183,-0.20967 -25.45288,-0.38997 z"
       id="path3844"
       inkscape:connector-curvature="0" />
    <path
       style="fill:#502d16;fill-opacity:1;fill-rule:nonzero;stroke:#502d16;stroke-width:3.0999999;stroke-linecap:butt;stroke-linejoin:round;stroke-miterlimit:4;stroke-opacity:1;stroke-dasharray:none;stroke-dashoffset:0"
       d="m 187.68,99.000245 c -22.59033,-4.135512 -39.289,-20.717564 -41.69341,-41.402257 -0.4069,-3.500468 -0.40946,-5.403592 -0.0118,-8.793233 0.47432,-4.043382 1.83353,-10.051822 2.52815,-11.175735 0.18738,-0.303196 2.60072,-0.66735 6.21523,-0.937831 25.76299,-1.927894 58.62831,-1.884995 85.12657,0.111115 l 6.51281,0.490608 0.78006,2.298598 c 1.58139,4.659833 2.15481,9.195687 1.9271,15.243565 -0.25335,6.728602 -1.17449,10.611028 -3.87347,16.32588 -2.52712,5.350969 -4.84577,8.615135 -9.30118,13.09408 -7.11138,7.148942 -15.33714,11.614057 -26.44083,14.352637 -3.95542,0.975552 -17.27279,1.21571 -21.76919,0.392573 z"
       id="path3846"
       inkscape:connector-curvature="0" />
    <path
       style="fill:#502d16;fill-opacity:1;fill-rule:nonzero;stroke:#502d16;stroke-width:1;stroke-linecap:butt;stroke-linejoin:round;stroke-miterlimit:4;stroke-opacity:1;stroke-dasharray:none;stroke-dashoffset:0"
       d="m 149.84811,34.621969 c 0,-0.51675 2.91255,-5.210952 5.03189,-8.109984 1.02389,-1.400573 3.36153,-3.979504 5.19476,-5.730958 16.12047,-15.4014065 42.01059,-18.9848741 62.50422,-8.651246 9.08494,4.580956 15.68518,10.667374 20.68655,19.076125 1.14741,1.929137 2.01308,3.580648 1.92371,3.670024 -0.0894,0.08938 -4.69601,-0.183261 -10.23696,-0.605861 -14.19817,-1.082872 -64.409,-1.091505 -76.14722,-0.01309 -8.94572,0.82186 -8.95695,0.822318 -8.95695,0.364992 z"
       id="path3848"
       inkscape:connector-curvature="0" />
    <path
       style="fill:none;stroke:#000000;stroke-width:1px;stroke-linecap:butt;stroke-linejoin:miter;stroke-opacity:1"
       d="m 165,31 25,15"
       id="path3850"
       inkscape:connector-curvature="0" />
    <path
       style="fill:none;stroke:#000000;stroke-width:1px;stroke-linecap:butt;stroke-linejoin:miter;stroke-opacity:1"
       d="M 230,31 205,46"
       id="path3852"
       inkscape:connector-curvature="0" />
    <path
       style="fill:none;stroke:#000000;stroke-width:1px;stroke-linecap:butt;stroke-linejoin:miter;stroke-opacity:1"
       d="m 165,31 c 0,0 0.72438,11.918306 5,15 5.40828,3.898069 20,0 20,0"
       id="path3873"
       inkscape:connector-curvature="0"
       sodipodi:nodetypes="csc" />
    <path
       style="fill:#ffffff;fill-opacity:1;fill-rule:nonzero;stroke:#502d16;stroke-width:0.73804438;stroke-linecap:butt;stroke-linejoin:round;stroke-miterlimit:4;stroke-opacity:1;stroke-dasharray:none;stroke-dashoffset:0"
       d="m 173.04208,46.671174 c -1.94203,-0.522062 -3.14605,-1.287799 -3.9789,-2.530515 -0.82595,-1.232413 -1.76944,-3.578921 -2.32413,-5.780241 -0.39528,-1.568659 -1.15706,-6.087627 -1.04462,-6.196832 0.0388,-0.03769 5.18874,3.001781 11.44431,6.754376 l 11.37376,6.8229 -1.25541,0.293743 c -4.21453,0.986121 -11.67235,1.320093 -14.21501,0.636569 z"
       id="path3877"
       inkscape:connector-curvature="0" />
    <path
       inkscape:connector-curvature="0"
       id="path3881"
       d="m 221.15365,46.671174 c 1.94203,-0.522062 3.14605,-1.287799 3.9789,-2.530515 0.82595,-1.232413 1.76944,-3.578921 2.32413,-5.780241 0.39528,-1.568659 1.15706,-6.087627 1.04462,-6.196832 -0.0388,-0.03769 -5.18874,3.001781 -11.44431,6.754376 l -11.37376,6.8229 1.25541,0.293743 c 4.21453,0.986121 11.67235,1.320093 14.21501,0.636569 z"
       style="fill:#ffffff;fill-opacity:1;fill-rule:nonzero;stroke:#000000;stroke-width:2;stroke-linecap:butt;stroke-linejoin:round;stroke-miterlimit:4;stroke-opacity:1;stroke-dasharray:none;stroke-dashoffset:0" />
    <path
       inkscape:connector-curvature="0"
       id="path3883"
       d="m 173.04208,46.671174 c -1.94203,-0.522062 -3.14605,-1.287799 -3.9789,-2.530515 -0.82595,-1.232413 -1.76944,-3.578921 -2.32413,-5.780241 -0.39528,-1.568659 -1.15706,-6.087627 -1.04462,-6.196832 0.0388,-0.03769 5.18874,3.001781 11.44431,6.754376 l 11.37376,6.8229 -1.25541,0.293743 c -4.21453,0.986121 -11.67235,1.320093 -14.21501,0.636569 z"
       style="fill:#ffffff;fill-opacity:1;fill-rule:nonzero;stroke:#000000;stroke-width:2;stroke-linecap:butt;stroke-linejoin:round;stroke-miterlimit:4;stroke-opacity:1;stroke-dasharray:none;stroke-dashoffset:0" />
    <path
       sodipodi:type="arc"
       style="color:#000000;fill:#fbc9a2;fill-opacity:1;stroke:#000000;stroke-width:1px;stroke-linecap:butt;stroke-linejoin:miter;stroke-miterlimit:4;stroke-opacity:1;stroke-dasharray:none;stroke-dashoffset:0;marker:none;visibility:visible;display:inline;overflow:visible;enable-background:accumulate"
       id="path3885"
       sodipodi:cx="200"
       sodipodi:cy="66"
       sodipodi:rx="10"
       sodipodi:ry="10"
       d="m 210,66 c 0,5.522847 -4.47715,10 -10,10 -5.52285,0 -10,-4.477153 -10,-10 0,-5.522847 4.47715,-10 10,-10 5.52285,0 10,4.477153 10,10 z"
       transform="translate(-2,0)" />
    <path
       style="fill:none;stroke:#000000;stroke-width:1px;stroke-linecap:butt;stroke-linejoin:miter;stroke-opacity:1"
       d="m 205,73 10,8"
       id="path3887"
       inkscape:connector-curvature="0" />
    <path
       style="fill:none;stroke:#000000;stroke-width:1px;stroke-linecap:butt;stroke-linejoin:miter;stroke-opacity:1"
       d="m 208,66 11,0"
       id="path3889"
       inkscape:connector-curvature="0" />
    <path
       inkscape:connector-curvature="0"
       id="path3891"
       d="m 205,59 10,-8"
       style="fill:none;stroke:#000000;stroke-width:1px;stroke-linecap:butt;stroke-linejoin:miter;stroke-opacity:1" />
    <path
       style="fill:none;stroke:#000000;stroke-width:1px;stroke-linecap:butt;stroke-linejoin:miter;stroke-opacity:1"
       d="M 191,59 181,51"
       id="path3893"
       inkscape:connector-curvature="0" />
    <path
       inkscape:connector-curvature="0"
       id="path3895"
       d="m 191,73 -10,8"
       style="fill:none;stroke:#000000;stroke-width:1px;stroke-linecap:butt;stroke-linejoin:miter;stroke-opacity:1" />
    <path
       inkscape:connector-curvature="0"
       id="path3897"
       d="m 176,66 11,0"
       style="fill:none;stroke:#000000;stroke-width:1px;stroke-linecap:butt;stroke-linejoin:miter;stroke-opacity:1" />
    <path
       sodipodi:type="arc"
       style="color:#000000;fill:#000000;fill-opacity:1;stroke:#000000;stroke-width:1px;stroke-linecap:butt;stroke-linejoin:miter;stroke-miterlimit:4;stroke-opacity:1;stroke-dasharray:none;stroke-dashoffset:0;marker:none;visibility:visible;display:inline;overflow:visible;enable-background:accumulate"
       id="path3957"
       sodipodi:cx="174"
       sodipodi:cy="42"
       sodipodi:rx="4"
       sodipodi:ry="4"
       d="m 178,42 c 0,2.209139 -1.79086,4 -4,4 -2.20914,0 -4,-1.790861 -4,-4 0,-2.209139 1.79086,-4 4,-4 2.20914,0 4,1.790861 4,4 z" />
    <path
       d="m 178,42 c 0,2.209139 -1.79086,4 -4,4 -2.20914,0 -4,-1.790861 -4,-4 0,-2.209139 1.79086,-4 4,-4 2.20914,0 4,1.790861 4,4 z"
       sodipodi:ry="4"
       sodipodi:rx="4"
       sodipodi:cy="42"
       sodipodi:cx="174"
       id="path3959"
       style="color:#000000;fill:#000000;fill-opacity:1;stroke:#000000;stroke-width:1px;stroke-linecap:butt;stroke-linejoin:miter;stroke-miterlimit:4;stroke-opacity:1;stroke-dasharray:none;stroke-dashoffset:0;marker:none;visibility:visible;display:inline;overflow:visible;enable-background:accumulate"
       sodipodi:type="arc"
       transform="translate(46,0)" />
    <path
       style="fill:none;stroke:#000000;stroke-width:5;stroke-linecap:butt;stroke-linejoin:miter;stroke-miterlimit:4;stroke-opacity:1;stroke-dasharray:none"
       d="m 170,26 20,15"
       id="path3961"
       inkscape:connector-curvature="0" />
    <path
       inkscape:connector-curvature="0"
       id="path3963"
       d="M 224,26 204,41"
       style="fill:none;stroke:#000000;stroke-width:5;stroke-linecap:butt;stroke-linejoin:miter;stroke-miterlimit:4;stroke-opacity:1;stroke-dasharray:none" />
  </g>
</svg>
